<?xml version="1.0" encoding="UTF-8" standalone="no"?>
<!DOCTYPE svg PUBLIC "-//W3C//DTD SVG 1.1//EN"
 "http://www.w3.org/Graphics/SVG/1.1/DTD/svg11.dtd">
<!-- Generated by graphviz version 2.40.1 (20161225.0304)
 -->
<!-- Title: %0 Pages: 1 -->
<svg width="446pt" height="889pt"
 viewBox="0.00 0.00 445.69 888.80" xmlns="http://www.w3.org/2000/svg" xmlns:xlink="http://www.w3.org/1999/xlink">
<g id="graph0" class="graph" transform="scale(1 1) rotate(0) translate(4 884.8)">
<title>%0</title>
<polygon fill="#ffffff" stroke="transparent" points="-4,4 -4,-884.8 441.6886,-884.8 441.6886,4 -4,4"/>
<!-- Screened -->
<g id="node1" class="node">
<title>Screened</title>
<polygon fill="none" stroke="#000000" points="168.0021,-880.6019 11.3751,-880.6019 11.3751,-839.3981 168.0021,-839.3981 168.0021,-880.6019"/>
<text text-anchor="middle" x="89.6886" y="-864.2" font-family="Arial" font-size="14.00" fill="#000000">Participants Screened </text>
<text text-anchor="middle" x="89.6886" y="-847.4" font-family="Arial" font-size="14.00" fill="#000000"> n = xxx</text>
</g>
<!-- A -->
<g id="node2" class="node">
<title>A</title>
<ellipse fill="#000000" stroke="#000000" cx="89.6886" cy="-774" rx=".036" ry=".036"/>
</g>
<!-- Screened&#45;&gt;A -->
<g id="edge1" class="edge">
<title>Screened&#45;&gt;A</title>
<path fill="none" stroke="#000000" d="M89.6886,-839.1818C89.6886,-814.5252 89.6886,-776.4692 89.6886,-774.1147"/>
</g>
<!-- Enrolled -->
<g id="node3" class="node">
<title>Enrolled</title>
<polygon fill="none" stroke="#000000" points="161.6886,-708.6019 17.6886,-708.6019 17.6886,-667.3981 161.6886,-667.3981 161.6886,-708.6019"/>
<text text-anchor="middle" x="89.6886" y="-692.2" font-family="Arial" font-size="14.00" fill="#000000">Enrolled </text>
<text text-anchor="middle" x="89.6886" y="-675.4" font-family="Arial" font-size="14.00" fill="#000000"> n = 225</text>
</g>
<!-- A&#45;&gt;Enrolled -->
<g id="edge2" class="edge">
<title>A&#45;&gt;Enrolled</title>
<path fill="none" stroke="#000000" d="M89.6886,-773.9377C89.6886,-772.4047 89.6886,-742.8965 89.6886,-718.8805"/>
<polygon fill="#000000" stroke="#000000" points="93.1887,-718.688 89.6886,-708.688 86.1887,-718.6881 93.1887,-718.688"/>
</g>
<!-- Excl -->
<g id="node11" class="node">
<title>Excl</title>
<polygon fill="none" stroke="#000000" points="383.6886,-803.4014 239.6886,-803.4014 239.6886,-744.5986 383.6886,-744.5986 383.6886,-803.4014"/>
<text text-anchor="middle" x="311.6886" y="-786.6" font-family="Arial" font-size="14.00" fill="#000000">Excluded n = xxx </text>
<text text-anchor="middle" x="311.6886" y="-769.8" font-family="Arial" font-size="14.00" fill="#000000"> reason 1 xxx </text>
<text text-anchor="middle" x="311.6886" y="-753" font-family="Arial" font-size="14.00" fill="#000000"> reason 2 xxx</text>
</g>
<!-- A&#45;&gt;Excl -->
<g id="edge17" class="edge">
<title>A&#45;&gt;Excl</title>
<path fill="none" stroke="#000000" d="M90.1222,-774C136.4861,-774 182.85,-774 229.214,-774"/>
<polygon fill="#000000" stroke="#000000" points="229.4199,-777.5001 239.4199,-774 229.4198,-770.5001 229.4199,-777.5001"/>
</g>
<!-- B -->
<g id="node4" class="node">
<title>B</title>
<ellipse fill="#000000" stroke="#000000" cx="89.6886" cy="-576.8" rx=".036" ry=".036"/>
</g>
<!-- Enrolled&#45;&gt;B -->
<g id="edge3" class="edge">
<title>Enrolled&#45;&gt;B</title>
<path fill="none" stroke="#000000" d="M89.6886,-667.3447C89.6886,-636.1915 89.6886,-580.4235 89.6886,-576.9685"/>
</g>
<!-- D28 -->
<g id="node5" class="node">
<title>D28</title>
<polygon fill="none" stroke="#000000" points="175.2837,-486.2019 4.0935,-486.2019 4.0935,-444.9981 175.2837,-444.9981 175.2837,-486.2019"/>
<text text-anchor="middle" x="89.6886" y="-469.8" font-family="Arial" font-size="14.00" fill="#000000">Included in D28 analysis </text>
<text text-anchor="middle" x="89.6886" y="-453" font-family="Arial" font-size="14.00" fill="#000000"> &#160;n = 221</text>
</g>
<!-- B&#45;&gt;D28 -->
<g id="edge4" class="edge">
<title>B&#45;&gt;D28</title>
<path fill="none" stroke="#000000" d="M89.6886,-576.7194C89.6886,-574.545 89.6886,-528.8425 89.6886,-496.7354"/>
<polygon fill="#000000" stroke="#000000" points="93.1887,-496.4506 89.6886,-486.4506 86.1887,-496.4506 93.1887,-496.4506"/>
</g>
<!-- LTFU_B4_D28 -->
<g id="node13" class="node">
<title>LTFU_B4_D28</title>
<polygon fill="none" stroke="#000000" points="383.6886,-631.1002 239.6886,-631.1002 239.6886,-522.4998 383.6886,-522.4998 383.6886,-631.1002"/>
<text text-anchor="middle" x="311.6886" y="-614.6" font-family="Arial" font-size="14.00" fill="#000000">Excluded n = 4 </text>
<text text-anchor="middle" x="311.6886" y="-597.8" font-family="Arial" font-size="14.00" fill="#000000"> &#160;</text>
<text text-anchor="middle" x="311.6886" y="-581" font-family="Arial" font-size="14.00" fill="#000000"> &#160;Withdrawn = 0 </text>
<text text-anchor="middle" x="311.6886" y="-564.2" font-family="Arial" font-size="14.00" fill="#000000"> Transfer out = 0 </text>
<text text-anchor="middle" x="311.6886" y="-547.4" font-family="Arial" font-size="14.00" fill="#000000"> LTFU = 3 </text>
<text text-anchor="middle" x="311.6886" y="-530.6" font-family="Arial" font-size="14.00" fill="#000000"> Ongoing fu = 1</text>
</g>
<!-- B&#45;&gt;LTFU_B4_D28 -->
<g id="edge18" class="edge">
<title>B&#45;&gt;LTFU_B4_D28</title>
<path fill="none" stroke="#000000" d="M90.1222,-576.8C136.4861,-576.8 182.85,-576.8 229.214,-576.8"/>
<polygon fill="#000000" stroke="#000000" points="229.4199,-580.3001 239.4199,-576.8 229.4198,-573.3001 229.4199,-580.3001"/>
</g>
<!-- C -->
<g id="node6" class="node">
<title>C</title>
<ellipse fill="#000000" stroke="#000000" cx="89.6886" cy="-354.4" rx=".036" ry=".036"/>
</g>
<!-- D28&#45;&gt;C -->
<g id="edge5" class="edge">
<title>D28&#45;&gt;C</title>
<path fill="none" stroke="#000000" d="M89.6886,-444.9447C89.6886,-413.7915 89.6886,-358.0235 89.6886,-354.5685"/>
</g>
<!-- D90 -->
<g id="node7" class="node">
<title>D90</title>
<polygon fill="none" stroke="#000000" points="175.2837,-263.8019 4.0935,-263.8019 4.0935,-222.5981 175.2837,-222.5981 175.2837,-263.8019"/>
<text text-anchor="middle" x="89.6886" y="-247.4" font-family="Arial" font-size="14.00" fill="#000000">Included in D90 analysis </text>
<text text-anchor="middle" x="89.6886" y="-230.6" font-family="Arial" font-size="14.00" fill="#000000"> &#160;n = 213</text>
</g>
<!-- C&#45;&gt;D90 -->
<g id="edge6" class="edge">
<title>C&#45;&gt;D90</title>
<path fill="none" stroke="#000000" d="M89.6886,-354.3194C89.6886,-352.145 89.6886,-306.4425 89.6886,-274.3354"/>
<polygon fill="#000000" stroke="#000000" points="93.1887,-274.0506 89.6886,-264.0506 86.1887,-274.0506 93.1887,-274.0506"/>
</g>
<!-- LTFU_B4_D90 -->
<g id="node15" class="node">
<title>LTFU_B4_D90</title>
<polygon fill="none" stroke="#000000" points="383.6886,-408.7002 239.6886,-408.7002 239.6886,-300.0998 383.6886,-300.0998 383.6886,-408.7002"/>
<text text-anchor="middle" x="311.6886" y="-392.2" font-family="Arial" font-size="14.00" fill="#000000">Excluded n = 8 </text>
<text text-anchor="middle" x="311.6886" y="-375.4" font-family="Arial" font-size="14.00" fill="#000000"> &#160;</text>
<text text-anchor="middle" x="311.6886" y="-358.6" font-family="Arial" font-size="14.00" fill="#000000"> &#160;Withdrawn = 5 </text>
<text text-anchor="middle" x="311.6886" y="-341.8" font-family="Arial" font-size="14.00" fill="#000000"> Transfer out = 1 </text>
<text text-anchor="middle" x="311.6886" y="-325" font-family="Arial" font-size="14.00" fill="#000000"> LTFU = 0 </text>
<text text-anchor="middle" x="311.6886" y="-308.2" font-family="Arial" font-size="14.00" fill="#000000"> Ongoing fu = 2</text>
</g>
<!-- C&#45;&gt;LTFU_B4_D90 -->
<g id="edge19" class="edge">
<title>C&#45;&gt;LTFU_B4_D90</title>
<path fill="none" stroke="#000000" d="M90.1222,-354.4C136.4861,-354.4 182.85,-354.4 229.214,-354.4"/>
<polygon fill="#000000" stroke="#000000" points="229.4199,-357.9001 239.4199,-354.4 229.4198,-350.9001 229.4199,-357.9001"/>
</g>
<!-- D -->
<g id="node8" class="node">
<title>D</title>
<ellipse fill="#000000" stroke="#000000" cx="89.6886" cy="-132" rx=".036" ry=".036"/>
</g>
<!-- D90&#45;&gt;D -->
<g id="edge7" class="edge">
<title>D90&#45;&gt;D</title>
<path fill="none" stroke="#000000" d="M89.6886,-222.5447C89.6886,-191.3915 89.6886,-135.6235 89.6886,-132.1685"/>
</g>
<!-- D180 -->
<g id="node9" class="node">
<title>D180</title>
<polygon fill="none" stroke="#000000" points="179.5662,-41.4019 -.189,-41.4019 -.189,-.1981 179.5662,-.1981 179.5662,-41.4019"/>
<text text-anchor="middle" x="89.6886" y="-25" font-family="Arial" font-size="14.00" fill="#000000">Included in D160 analysis </text>
<text text-anchor="middle" x="89.6886" y="-8.2" font-family="Arial" font-size="14.00" fill="#000000"> &#160;n = 200</text>
</g>
<!-- D&#45;&gt;D180 -->
<g id="edge8" class="edge">
<title>D&#45;&gt;D180</title>
<path fill="none" stroke="#000000" d="M89.6886,-131.9194C89.6886,-129.745 89.6886,-84.0425 89.6886,-51.9354"/>
<polygon fill="#000000" stroke="#000000" points="93.1887,-51.6506 89.6886,-41.6506 86.1887,-51.6506 93.1887,-51.6506"/>
</g>
<!-- LTFU_B4_D180 -->
<g id="node17" class="node">
<title>LTFU_B4_D180</title>
<polygon fill="none" stroke="#000000" points="383.6886,-186.3002 239.6886,-186.3002 239.6886,-77.6998 383.6886,-77.6998 383.6886,-186.3002"/>
<text text-anchor="middle" x="311.6886" y="-169.8" font-family="Arial" font-size="14.00" fill="#000000">Excluded n = 13 </text>
<text text-anchor="middle" x="311.6886" y="-153" font-family="Arial" font-size="14.00" fill="#000000"> &#160;</text>
<text text-anchor="middle" x="311.6886" y="-136.2" font-family="Arial" font-size="14.00" fill="#000000"> &#160;Withdrawn = 0 </text>
<text text-anchor="middle" x="311.6886" y="-119.4" font-family="Arial" font-size="14.00" fill="#000000"> Transfer out = 10 </text>
<text text-anchor="middle" x="311.6886" y="-102.6" font-family="Arial" font-size="14.00" fill="#000000"> LTFU = 1 </text>
<text text-anchor="middle" x="311.6886" y="-85.8" font-family="Arial" font-size="14.00" fill="#000000"> Ongoing fu = 2</text>
</g>
<!-- D&#45;&gt;LTFU_B4_D180 -->
<g id="edge20" class="edge">
<title>D&#45;&gt;LTFU_B4_D180</title>
<path fill="none" stroke="#000000" d="M90.1222,-132C136.4861,-132 182.85,-132 229.214,-132"/>
<polygon fill="#000000" stroke="#000000" points="229.4199,-135.5001 239.4199,-132 229.4198,-128.5001 229.4199,-135.5001"/>
</g>
<!-- E -->
<!-- E&#45;&gt;Excl -->
<!-- G -->
<!-- Excl&#45;&gt;G -->
<!-- G&#45;&gt;LTFU_B4_D28 -->
<!-- Died_by_D28 -->
<!-- LTFU_B4_D28&#45;&gt;Died_by_D28 -->
<!-- Died_by_D28&#45;&gt;LTFU_B4_D90 -->
<!-- Died_D28_to_90 -->
<!-- LTFU_B4_D90&#45;&gt;Died_D28_to_90 -->
<!-- Died_D28_to_90&#45;&gt;LTFU_B4_D180 -->
<!-- Died_D90_to_180 -->
<!-- LTFU_B4_D180&#45;&gt;Died_D90_to_180 -->
</g>
</svg>

