<?xml version="1.0" encoding="UTF-8" standalone="no"?>
<!DOCTYPE svg PUBLIC "-//W3C//DTD SVG 1.1//EN"
 "http://www.w3.org/Graphics/SVG/1.1/DTD/svg11.dtd">
<!-- Generated by graphviz version 2.40.1 (20161225.0304)
 -->
<!-- Title: %0 Pages: 1 -->
<svg width="710pt" height="611pt"
 viewBox="0.00 0.00 709.79 611.00" xmlns="http://www.w3.org/2000/svg" xmlns:xlink="http://www.w3.org/1999/xlink">
<g id="graph0" class="graph" transform="scale(1 1) rotate(0) translate(4 607)">
<title>%0</title>
<polygon fill="#ffffff" stroke="transparent" points="-4,4 -4,-607 705.7866,-607 705.7866,4 -4,4"/>
<g id="clust1" class="cluster">
<title>cluster_arm_3</title>
<polygon fill="none" stroke="#000000" stroke-dasharray="5,2" points="83.0932,-8 83.0932,-110 693.7866,-110 693.7866,-8 83.0932,-8"/>
<text text-anchor="middle" x="388.4399" y="-89.8" font-family="Arial" font-size="18.00" fill="#000000">Arm 3: Community</text>
</g>
<g id="clust2" class="cluster">
<title>cluster_arm_2</title>
<polygon fill="none" stroke="#000000" stroke-dasharray="5,2" points="85.0322,-118 85.0322,-205 693.7866,-205 693.7866,-118 85.0322,-118"/>
<text text-anchor="middle" x="389.4094" y="-184.8" font-family="Arial" font-size="18.00" fill="#000000">Arm 2: Hospital inpatients, antibiotic unexposed</text>
</g>
<g id="clust3" class="cluster">
<title>cluster_arm_1</title>
<polygon fill="none" stroke="#000000" stroke-dasharray="5,2" points="8,-213 8,-595 693.7866,-595 693.7866,-213 8,-213"/>
<text text-anchor="middle" x="350.8933" y="-574.8" font-family="Arial" font-size="18.00" fill="#000000">Arm 1: Hospital inpatients, sepsis</text>
</g>
<!-- k -->
<g id="node1" class="node">
<title>k</title>
<polygon fill="#f8f8ff" stroke="#000000" points="181.5847,-64.6019 91.2623,-64.6019 91.2623,-23.3981 181.5847,-23.3981 181.5847,-64.6019"/>
<text text-anchor="middle" x="136.4235" y="-48.2" font-family="Arial" font-size="14.00" fill="#000000">Enrollmemt </text>
<text text-anchor="middle" x="136.4235" y="-31.4" font-family="Arial" font-size="14.00" fill="#000000"> Stool</text>
</g>
<!-- l -->
<!-- k&#45;&gt;l -->
<!-- m -->
<g id="node3" class="node">
<title>m</title>
<polygon fill="#f8f8ff" stroke="#000000" points="463.7069,-64.6019 396.0179,-64.6019 396.0179,-23.3981 463.7069,-23.3981 463.7069,-64.6019"/>
<text text-anchor="middle" x="429.8624" y="-48.2" font-family="Arial" font-size="14.00" fill="#000000">Week 4 </text>
<text text-anchor="middle" x="429.8624" y="-31.4" font-family="Arial" font-size="14.00" fill="#000000"> Stool</text>
</g>
<!-- k&#45;&gt;m -->
<g id="edge5" class="edge">
<title>k&#45;&gt;m</title>
<path fill="none" stroke="#000000" d="M181.9661,-52.6576C227.2622,-60.0462 298.6865,-68.3951 360.1906,-61 368.7201,-59.9744 377.7132,-58.2667 386.3002,-56.3191"/>
<polygon fill="#000000" stroke="#000000" points="387.2394,-59.693 396.142,-53.949 385.6005,-52.8876 387.2394,-59.693"/>
</g>
<!-- l&#45;&gt;m -->
<!-- n -->
<!-- m&#45;&gt;n -->
<!-- o -->
<g id="node5" class="node">
<title>o</title>
<polygon fill="#f8f8ff" stroke="#000000" points="685.8498,-64.6019 610.5972,-64.6019 610.5972,-23.3981 685.8498,-23.3981 685.8498,-64.6019"/>
<text text-anchor="middle" x="648.2235" y="-48.2" font-family="Arial" font-size="14.00" fill="#000000">Week 24 </text>
<text text-anchor="middle" x="648.2235" y="-31.4" font-family="Arial" font-size="14.00" fill="#000000"> Stool</text>
</g>
<!-- m&#45;&gt;o -->
<g id="edge6" class="edge">
<title>m&#45;&gt;o</title>
<path fill="none" stroke="#000000" d="M463.5828,-53.949C474.9026,-56.8258 487.667,-59.5731 499.5342,-61 532.6849,-64.9859 541.486,-64.7833 574.6604,-61 583.085,-60.0392 591.9491,-58.4785 600.4926,-56.6825"/>
<polygon fill="#000000" stroke="#000000" points="601.3313,-60.0815 610.3291,-54.4878 599.8069,-53.2495 601.3313,-60.0815"/>
</g>
<!-- n&#45;&gt;o -->
<!-- f -->
<g id="node6" class="node">
<title>f</title>
<polygon fill="#f8f8ff" stroke="#000000" points="179.7064,-167.6019 93.1406,-167.6019 93.1406,-126.3981 179.7064,-126.3981 179.7064,-167.6019"/>
<text text-anchor="middle" x="136.4235" y="-151.2" font-family="Arial" font-size="14.00" fill="#000000">Enrollment </text>
<text text-anchor="middle" x="136.4235" y="-134.4" font-family="Arial" font-size="14.00" fill="#000000"> Stool</text>
</g>
<!-- g -->
<g id="node7" class="node">
<title>g</title>
<polygon fill="#f8f8ff" stroke="#000000" points="360.3633,-167.6019 292.6743,-167.6019 292.6743,-126.3981 360.3633,-126.3981 360.3633,-167.6019"/>
<text text-anchor="middle" x="326.5188" y="-151.2" font-family="Arial" font-size="14.00" fill="#000000">Week 1 </text>
<text text-anchor="middle" x="326.5188" y="-134.4" font-family="Arial" font-size="14.00" fill="#000000"> Stool</text>
</g>
<!-- f&#45;&gt;g -->
<g id="edge7" class="edge">
<title>f&#45;&gt;g</title>
<path fill="none" stroke="#000000" d="M180.0352,-147C210.7615,-147 251.7504,-147 282.5548,-147"/>
<polygon fill="#000000" stroke="#000000" points="282.5816,-150.5001 292.5815,-147 282.5815,-143.5001 282.5816,-150.5001"/>
</g>
<!-- h -->
<g id="node8" class="node">
<title>h</title>
<polygon fill="#f8f8ff" stroke="#000000" points="463.7069,-167.6019 396.0179,-167.6019 396.0179,-126.3981 463.7069,-126.3981 463.7069,-167.6019"/>
<text text-anchor="middle" x="429.8624" y="-151.2" font-family="Arial" font-size="14.00" fill="#000000">Week 4 </text>
<text text-anchor="middle" x="429.8624" y="-134.4" font-family="Arial" font-size="14.00" fill="#000000"> Stool</text>
</g>
<!-- g&#45;&gt;h -->
<g id="edge8" class="edge">
<title>g&#45;&gt;h</title>
<path fill="none" stroke="#000000" d="M360.3574,-147C368.4763,-147 377.2647,-147 385.7727,-147"/>
<polygon fill="#000000" stroke="#000000" points="385.9479,-150.5001 395.9478,-147 385.9478,-143.5001 385.9479,-150.5001"/>
</g>
<!-- i -->
<g id="node9" class="node">
<title>i</title>
<polygon fill="#f8f8ff" stroke="#000000" points="574.7236,-167.6019 499.471,-167.6019 499.471,-126.3981 574.7236,-126.3981 574.7236,-167.6019"/>
<text text-anchor="middle" x="537.0973" y="-151.2" font-family="Arial" font-size="14.00" fill="#000000">Week 12 </text>
<text text-anchor="middle" x="537.0973" y="-134.4" font-family="Arial" font-size="14.00" fill="#000000"> Stool</text>
</g>
<!-- h&#45;&gt;i -->
<g id="edge9" class="edge">
<title>h&#45;&gt;i</title>
<path fill="none" stroke="#000000" d="M463.7922,-147C471.8189,-147 480.5292,-147 489.0498,-147"/>
<polygon fill="#000000" stroke="#000000" points="489.2903,-150.5001 499.2903,-147 489.2903,-143.5001 489.2903,-150.5001"/>
</g>
<!-- j -->
<g id="node10" class="node">
<title>j</title>
<polygon fill="#f8f8ff" stroke="#000000" points="685.8498,-167.6019 610.5972,-167.6019 610.5972,-126.3981 685.8498,-126.3981 685.8498,-167.6019"/>
<text text-anchor="middle" x="648.2235" y="-151.2" font-family="Arial" font-size="14.00" fill="#000000">Week 24 </text>
<text text-anchor="middle" x="648.2235" y="-134.4" font-family="Arial" font-size="14.00" fill="#000000"> Stool</text>
</g>
<!-- i&#45;&gt;j -->
<g id="edge10" class="edge">
<title>i&#45;&gt;j</title>
<path fill="none" stroke="#000000" d="M574.7196,-147C582.9563,-147 591.7823,-147 600.3587,-147"/>
<polygon fill="#000000" stroke="#000000" points="600.64,-150.5001 610.64,-147 600.6399,-143.5001 600.64,-150.5001"/>
</g>
<!-- a -->
<g id="node11" class="node">
<title>a</title>
<polygon fill="#f8f8ff" stroke="#000000" points="179.7064,-557.7003 93.1406,-557.7003 93.1406,-482.2997 179.7064,-482.2997 179.7064,-557.7003"/>
<text text-anchor="middle" x="136.4235" y="-541" font-family="Arial" font-size="14.00" fill="#000000">Enrollment </text>
<text text-anchor="middle" x="136.4235" y="-524.2" font-family="Arial" font-size="14.00" fill="#000000"> Blood </text>
<text text-anchor="middle" x="136.4235" y="-507.4" font-family="Arial" font-size="14.00" fill="#000000"> Stool </text>
<text text-anchor="middle" x="136.4235" y="-490.6" font-family="Arial" font-size="14.00" fill="#000000"> Urine</text>
</g>
<!-- b -->
<g id="node12" class="node">
<title>b</title>
<polygon fill="#f8f8ff" stroke="#000000" points="360.3633,-540.6019 292.6743,-540.6019 292.6743,-499.3981 360.3633,-499.3981 360.3633,-540.6019"/>
<text text-anchor="middle" x="326.5188" y="-524.2" font-family="Arial" font-size="14.00" fill="#000000">Week 1 </text>
<text text-anchor="middle" x="326.5188" y="-507.4" font-family="Arial" font-size="14.00" fill="#000000"> Stool</text>
</g>
<!-- a&#45;&gt;b -->
<g id="edge11" class="edge">
<title>a&#45;&gt;b</title>
<path fill="none" stroke="#000000" d="M180.0352,-520C210.7615,-520 251.7504,-520 282.5548,-520"/>
<polygon fill="#000000" stroke="#000000" points="282.5816,-523.5001 292.5815,-520 282.5815,-516.5001 282.5816,-523.5001"/>
</g>
<!-- c -->
<g id="node13" class="node">
<title>c</title>
<polygon fill="#f8f8ff" stroke="#000000" points="463.7069,-549.4014 396.0179,-549.4014 396.0179,-490.5986 463.7069,-490.5986 463.7069,-549.4014"/>
<text text-anchor="middle" x="429.8624" y="-532.6" font-family="Arial" font-size="14.00" fill="#000000">Week 4 </text>
<text text-anchor="middle" x="429.8624" y="-515.8" font-family="Arial" font-size="14.00" fill="#000000"> Blood </text>
<text text-anchor="middle" x="429.8624" y="-499" font-family="Arial" font-size="14.00" fill="#000000"> Stool</text>
</g>
<!-- b&#45;&gt;c -->
<g id="edge12" class="edge">
<title>b&#45;&gt;c</title>
<path fill="none" stroke="#000000" d="M360.3574,-520C368.4763,-520 377.2647,-520 385.7727,-520"/>
<polygon fill="#000000" stroke="#000000" points="385.9479,-523.5001 395.9478,-520 385.9478,-516.5001 385.9479,-523.5001"/>
</g>
<!-- d -->
<g id="node14" class="node">
<title>d</title>
<polygon fill="#f8f8ff" stroke="#000000" points="574.7236,-540.6019 499.471,-540.6019 499.471,-499.3981 574.7236,-499.3981 574.7236,-540.6019"/>
<text text-anchor="middle" x="537.0973" y="-524.2" font-family="Arial" font-size="14.00" fill="#000000">Week 12 </text>
<text text-anchor="middle" x="537.0973" y="-507.4" font-family="Arial" font-size="14.00" fill="#000000"> Stool</text>
</g>
<!-- c&#45;&gt;d -->
<g id="edge13" class="edge">
<title>c&#45;&gt;d</title>
<path fill="none" stroke="#000000" d="M463.7922,-520C471.8189,-520 480.5292,-520 489.0498,-520"/>
<polygon fill="#000000" stroke="#000000" points="489.2903,-523.5001 499.2903,-520 489.2903,-516.5001 489.2903,-523.5001"/>
</g>
<!-- e -->
<g id="node15" class="node">
<title>e</title>
<polygon fill="#f8f8ff" stroke="#000000" points="685.8498,-540.6019 610.5972,-540.6019 610.5972,-499.3981 685.8498,-499.3981 685.8498,-540.6019"/>
<text text-anchor="middle" x="648.2235" y="-524.2" font-family="Arial" font-size="14.00" fill="#000000">Week 24 </text>
<text text-anchor="middle" x="648.2235" y="-507.4" font-family="Arial" font-size="14.00" fill="#000000"> Stool</text>
</g>
<!-- d&#45;&gt;e -->
<g id="edge14" class="edge">
<title>d&#45;&gt;e</title>
<path fill="none" stroke="#000000" d="M574.7196,-520C582.9563,-520 591.7823,-520 600.3587,-520"/>
<polygon fill="#000000" stroke="#000000" points="600.64,-523.5001 610.64,-520 600.6399,-516.5001 600.64,-523.5001"/>
</g>
<!-- z -->
<g id="node16" class="node">
<title>z</title>
<polygon fill="#f8f8ff" stroke="#000000" points="256.7705,-464.7001 16.0765,-464.7001 16.0765,-221.2999 256.7705,-221.2999 256.7705,-464.7001"/>
<text text-anchor="middle" x="136.4235" y="-448" font-family="Arial" font-size="14.00" fill="#000000">Baseline investigations </text>
<text text-anchor="middle" x="136.4235" y="-431.2" font-family="Arial" font-size="14.00" fill="#000000"> FBC </text>
<text text-anchor="middle" x="136.4235" y="-414.4" font-family="Arial" font-size="14.00" fill="#000000"> U&amp;E </text>
<text text-anchor="middle" x="136.4235" y="-397.6" font-family="Arial" font-size="14.00" fill="#000000"> Lactate </text>
<text text-anchor="middle" x="136.4235" y="-380.8" font-family="Arial" font-size="14.00" fill="#000000"> mRDT </text>
<text text-anchor="middle" x="136.4235" y="-364" font-family="Arial" font-size="14.00" fill="#000000"> HIV Ab </text>
<text text-anchor="middle" x="136.4235" y="-347.2" font-family="Arial" font-size="14.00" fill="#000000">CD4* </text>
<text text-anchor="middle" x="136.4235" y="-330.4" font-family="Arial" font-size="14.00" fill="#000000"> Aerobic blood culture </text>
<text text-anchor="middle" x="136.4235" y="-313.6" font-family="Arial" font-size="14.00" fill="#000000"> Mycobacterial blood culture </text>
<text text-anchor="middle" x="136.4235" y="-296.8" font-family="Arial" font-size="14.00" fill="#000000">Acute and convalescent serum save</text>
<text text-anchor="middle" x="136.4235" y="-280" font-family="Arial" font-size="14.00" fill="#000000"> uLAM </text>
<text text-anchor="middle" x="136.4235" y="-263.2" font-family="Arial" font-size="14.00" fill="#000000"> FASH USS </text>
<text text-anchor="middle" x="136.4235" y="-246.4" font-family="Arial" font-size="14.00" fill="#000000"> Sputum Xpert** </text>
<text text-anchor="middle" x="136.4235" y="-229.6" font-family="Arial" font-size="14.00" fill="#000000"> CXR**</text>
</g>
</g>
</svg>

