<?xml version="1.0" encoding="UTF-8" standalone="no"?>
<!DOCTYPE svg PUBLIC "-//W3C//DTD SVG 1.1//EN"
 "http://www.w3.org/Graphics/SVG/1.1/DTD/svg11.dtd">
<!-- Generated by graphviz version 2.40.1 (20161225.0304)
 -->
<!-- Title: %0 Pages: 1 -->
<svg width="184pt" height="332pt"
 viewBox="0.00 0.00 183.64 332.00" xmlns="http://www.w3.org/2000/svg" xmlns:xlink="http://www.w3.org/1999/xlink">
<g id="graph0" class="graph" transform="scale(1 1) rotate(0) translate(4 328)">
<title>%0</title>
<polygon fill="#ffffff" stroke="transparent" points="-4,4 -4,-328 179.6363,-328 179.6363,4 -4,4"/>
<!-- I -->
<g id="node1" class="node">
<title>I</title>
<polygon fill="none" stroke="#000000" points="54,-252 0,-252 0,-216 54,-216 54,-252"/>
<text text-anchor="middle" x="27" y="-231" font-family="Helvetica,sans-Serif" font-size="10.00" fill="#000000">Infection</text>
</g>
<!-- S -->
<g id="node2" class="node">
<title>S</title>
<polygon fill="none" stroke="#000000" points="164,-180 110,-180 110,-144 164,-144 164,-180"/>
<text text-anchor="middle" x="137" y="-159" font-family="Helvetica,sans-Serif" font-size="10.00" fill="#000000">Severity</text>
</g>
<!-- I&#45;&gt;S -->
<g id="edge1" class="edge">
<title>I&#45;&gt;S</title>
<path fill="none" stroke="#000000" d="M54.191,-216.2022C68.3378,-206.9425 85.8157,-195.5025 101.063,-185.5224"/>
<polygon fill="#000000" stroke="#000000" points="103.2903,-188.2476 109.7406,-179.8425 99.4567,-182.3907 103.2903,-188.2476"/>
</g>
<!-- O -->
<g id="node3" class="node">
<title>O</title>
<polygon fill="none" stroke="#000000" points="137.0657,-36 80.9343,-36 80.9343,0 137.0657,0 137.0657,-36"/>
<text text-anchor="middle" x="109" y="-15" font-family="Helvetica,sans-Serif" font-size="10.00" fill="#000000">Outcome</text>
</g>
<!-- I&#45;&gt;O -->
<g id="edge10" class="edge">
<title>I&#45;&gt;O</title>
<path fill="none" stroke="#000000" stroke-dasharray="5,2" d="M25.0115,-215.7274C22.4562,-184.3293 20.9704,-118.9866 46,-72 52.3061,-60.1619 62.3589,-49.7918 72.5988,-41.3877"/>
<polygon fill="#000000" stroke="#000000" points="74.9999,-43.956 80.7831,-35.0788 70.7262,-38.412 74.9999,-43.956"/>
</g>
<!-- T -->
<g id="node5" class="node">
<title>T</title>
<polygon fill="none" stroke="#000000" points="109,-108 55,-108 55,-72 109,-72 109,-108"/>
<text text-anchor="middle" x="82" y="-87" font-family="Helvetica,sans-Serif" font-size="10.00" fill="#000000">Therapy</text>
</g>
<!-- I&#45;&gt;T -->
<g id="edge8" class="edge">
<title>I&#45;&gt;T</title>
<path fill="none" stroke="#000000" d="M33.9658,-215.7623C43.4295,-190.9846 60.4311,-146.4714 71.4607,-117.5939"/>
<polygon fill="#000000" stroke="#000000" points="74.7923,-118.6803 75.0908,-108.0896 68.253,-116.1826 74.7923,-118.6803"/>
</g>
<!-- S&#45;&gt;O -->
<g id="edge2" class="edge">
<title>S&#45;&gt;O</title>
<path fill="none" stroke="#000000" d="M133.4538,-143.7623C128.6569,-119.0928 120.0561,-74.8598 114.4392,-45.9731"/>
<polygon fill="#000000" stroke="#000000" points="117.8619,-45.2377 112.5174,-36.0896 110.9905,-46.5738 117.8619,-45.2377"/>
</g>
<!-- S&#45;&gt;T -->
<g id="edge9" class="edge">
<title>S&#45;&gt;T</title>
<path fill="none" stroke="#000000" d="M123.1212,-143.8314C116.7864,-135.5386 109.1616,-125.557 102.2074,-116.4533"/>
<polygon fill="#000000" stroke="#000000" points="104.9175,-114.2353 96.0657,-108.4133 99.3548,-118.4847 104.9175,-114.2353"/>
</g>
<!-- H -->
<g id="node4" class="node">
<title>H</title>
<polygon fill="none" stroke="#000000" points="136,-324 82,-324 82,-288 136,-288 136,-324"/>
<text text-anchor="middle" x="109" y="-303" font-family="Helvetica,sans-Serif" font-size="10.00" fill="#000000">Host</text>
</g>
<!-- H&#45;&gt;I -->
<g id="edge3" class="edge">
<title>H&#45;&gt;I</title>
<path fill="none" stroke="#000000" d="M88.3079,-287.8314C78.3052,-279.0485 66.145,-268.3712 55.3001,-258.8489"/>
<polygon fill="#000000" stroke="#000000" points="57.5092,-256.1308 47.6854,-252.1628 52.8906,-261.3909 57.5092,-256.1308"/>
</g>
<!-- H&#45;&gt;S -->
<g id="edge4" class="edge">
<title>H&#45;&gt;S</title>
<path fill="none" stroke="#000000" d="M112.5462,-287.7623C117.3431,-263.0928 125.9439,-218.8598 131.5608,-189.9731"/>
<polygon fill="#000000" stroke="#000000" points="135.0095,-190.5738 133.4826,-180.0896 128.1381,-189.2377 135.0095,-190.5738"/>
</g>
<!-- H&#45;&gt;O -->
<g id="edge5" class="edge">
<title>H&#45;&gt;O</title>
<path fill="none" stroke="#000000" stroke-dasharray="5,2" d="M124.3735,-287.6157C147.1285,-258.1508 185.7839,-198.1536 173,-144 164.3146,-107.208 142.9005,-69.061 127.2259,-44.5178"/>
<polygon fill="#000000" stroke="#000000" points="130.1411,-42.5806 121.7449,-36.1187 124.2788,-46.4061 130.1411,-42.5806"/>
</g>
<!-- H&#45;&gt;T -->
<g id="edge6" class="edge">
<title>H&#45;&gt;T</title>
<path fill="none" stroke="#000000" d="M106.7444,-287.9555C102.0393,-250.3144 91.1483,-163.1867 85.5156,-118.1246"/>
<polygon fill="#000000" stroke="#000000" points="88.9815,-117.6337 84.2681,-108.1451 82.0356,-118.502 88.9815,-117.6337"/>
</g>
<!-- T&#45;&gt;O -->
<g id="edge7" class="edge">
<title>T&#45;&gt;O</title>
<path fill="none" stroke="#000000" d="M88.8132,-71.8314C91.7644,-63.9617 95.2858,-54.5712 98.555,-45.8533"/>
<polygon fill="#000000" stroke="#000000" points="101.8609,-47.0055 102.095,-36.4133 95.3066,-44.5476 101.8609,-47.0055"/>
</g>
</g>
</svg>

