<?xml version="1.0" encoding="UTF-8" standalone="no"?>
<!DOCTYPE svg PUBLIC "-//W3C//DTD SVG 1.1//EN"
 "http://www.w3.org/Graphics/SVG/1.1/DTD/svg11.dtd">
<!-- Generated by graphviz version 2.40.1 (20161225.0304)
 -->
<!-- Title: %0 Pages: 1 -->
<svg width="1143pt" height="1094pt"
 viewBox="0.00 0.00 1143.13 1094.40" xmlns="http://www.w3.org/2000/svg" xmlns:xlink="http://www.w3.org/1999/xlink">
<g id="graph0" class="graph" transform="scale(1 1) rotate(0) translate(4 1090.4)">
<title>%0</title>
<polygon fill="#ffffff" stroke="transparent" points="-4,4 -4,-1090.4 1139.1269,-1090.4 1139.1269,4 -4,4"/>
<!-- b -->
<g id="node1" class="node">
<title>b</title>
<ellipse fill="#000000" stroke="#000000" cx="81.1269" cy="-954.4" rx=".036" ry=".036"/>
</g>
<!-- b1 -->
<g id="node2" class="node">
<title>b1</title>
<polygon fill="none" stroke="#000000" points="393.1057,-1000.4 189.1481,-1000.4 189.1481,-908.4 393.1057,-908.4 393.1057,-1000.4"/>
<text text-anchor="middle" x="291.1269" y="-983.8" font-family="Helvetica,sans-Serif" font-size="14.00" fill="#000000">Excluded n = 122</text>
<text text-anchor="middle" x="291.1269" y="-967" font-family="Helvetica,sans-Serif" font-size="14.00" fill="#000000"> Physiology criteria not met 64</text>
<text text-anchor="middle" x="291.1269" y="-950.2" font-family="Helvetica,sans-Serif" font-size="14.00" fill="#000000">Outside Blantyre 81</text>
<text text-anchor="middle" x="291.1269" y="-933.4" font-family="Helvetica,sans-Serif" font-size="14.00" fill="#000000">Confused no guardian 4</text>
<text text-anchor="middle" x="291.1269" y="-916.6" font-family="Helvetica,sans-Serif" font-size="14.00" fill="#000000">Age 3</text>
</g>
<!-- b&#45;&gt;b1 -->
<g id="edge12" class="edge">
<title>b&#45;&gt;b1</title>
<path fill="none" stroke="#000000" d="M81.5371,-954.4C114.0595,-954.4 146.5819,-954.4 179.1043,-954.4"/>
<polygon fill="#000000" stroke="#000000" points="179.1975,-957.9001 189.1975,-954.4 179.1974,-950.9001 179.1975,-957.9001"/>
</g>
<!-- c -->
<g id="node12" class="node">
<title>c</title>
<polygon fill="none" stroke="#000000" points="158.6058,-864.2014 3.648,-864.2014 3.648,-805.3986 158.6058,-805.3986 158.6058,-864.2014"/>
<text text-anchor="middle" x="81.1269" y="-847.4" font-family="Helvetica,sans-Serif" font-size="14.00" fill="#000000">Enrolled </text>
<text text-anchor="middle" x="81.1269" y="-830.6" font-family="Helvetica,sans-Serif" font-size="14.00" fill="#000000">225 participants</text>
<text text-anchor="middle" x="81.1269" y="-813.8" font-family="Helvetica,sans-Serif" font-size="14.00" fill="#000000">222 samples collected</text>
</g>
<!-- b&#45;&gt;c -->
<g id="edge2" class="edge">
<title>b&#45;&gt;c</title>
<path fill="none" stroke="#000000" d="M81.1269,-954.3133C81.1269,-952.1082 81.1269,-908.2797 81.1269,-874.3332"/>
<polygon fill="#000000" stroke="#000000" points="84.627,-874.1723 81.1269,-864.1723 77.627,-874.1723 84.627,-874.1723"/>
</g>
<!-- d -->
<g id="node3" class="node">
<title>d</title>
<ellipse fill="#000000" stroke="#000000" cx="81.1269" cy="-732" rx=".036" ry=".036"/>
</g>
<!-- d1 -->
<g id="node4" class="node">
<title>d1</title>
<polygon fill="none" stroke="#000000" points="333.1269,-761.4014 189.1269,-761.4014 189.1269,-702.5986 333.1269,-702.5986 333.1269,-761.4014"/>
<text text-anchor="middle" x="261.1269" y="-744.6" font-family="Helvetica,sans-Serif" font-size="14.00" fill="#000000">Excluded n= 22 </text>
<text text-anchor="middle" x="261.1269" y="-727.8" font-family="Helvetica,sans-Serif" font-size="14.00" fill="#000000">19 died</text>
<text text-anchor="middle" x="261.1269" y="-711" font-family="Helvetica,sans-Serif" font-size="14.00" fill="#000000">3 LTFU</text>
</g>
<!-- d&#45;&gt;d1 -->
<g id="edge13" class="edge">
<title>d&#45;&gt;d1</title>
<path fill="none" stroke="#000000" d="M81.4785,-732C113.9125,-732 146.3466,-732 178.7807,-732"/>
<polygon fill="#000000" stroke="#000000" points="178.8465,-735.5001 188.8465,-732 178.8464,-728.5001 178.8465,-735.5001"/>
</g>
<!-- e -->
<g id="node13" class="node">
<title>e</title>
<polygon fill="none" stroke="#000000" points="162.3809,-658.6014 -.1271,-658.6014 -.1271,-599.7986 162.3809,-599.7986 162.3809,-658.6014"/>
<text text-anchor="middle" x="81.1269" y="-641.8" font-family="Helvetica,sans-Serif" font-size="14.00" fill="#000000">Day 7 visit</text>
<text text-anchor="middle" x="81.1269" y="-625" font-family="Helvetica,sans-Serif" font-size="14.00" fill="#000000">203 participants eligible</text>
<text text-anchor="middle" x="81.1269" y="-608.2" font-family="Helvetica,sans-Serif" font-size="14.00" fill="#000000">162 samples collected</text>
</g>
<!-- d&#45;&gt;e -->
<g id="edge4" class="edge">
<title>d&#45;&gt;e</title>
<path fill="none" stroke="#000000" d="M81.1269,-731.9255C81.1269,-730.144 81.1269,-696.7566 81.1269,-668.5227"/>
<polygon fill="#000000" stroke="#000000" points="84.627,-668.422 81.1269,-658.422 77.627,-668.422 84.627,-668.422"/>
</g>
<!-- f -->
<g id="node5" class="node">
<title>f</title>
<ellipse fill="#000000" stroke="#000000" cx="81.1269" cy="-534.8" rx=".036" ry=".036"/>
</g>
<!-- f1 -->
<g id="node6" class="node">
<title>f1</title>
<polygon fill="none" stroke="#000000" points="333.1269,-555.4019 189.1269,-555.4019 189.1269,-514.1981 333.1269,-514.1981 333.1269,-555.4019"/>
<text text-anchor="middle" x="261.1269" y="-539" font-family="Helvetica,sans-Serif" font-size="14.00" fill="#000000">Excluded n=21 </text>
<text text-anchor="middle" x="261.1269" y="-522.2" font-family="Helvetica,sans-Serif" font-size="14.00" fill="#000000">21 died</text>
</g>
<!-- f&#45;&gt;f1 -->
<g id="edge15" class="edge">
<title>f&#45;&gt;f1</title>
<path fill="none" stroke="#000000" d="M81.4785,-534.8C113.9125,-534.8 146.3466,-534.8 178.7807,-534.8"/>
<polygon fill="#000000" stroke="#000000" points="178.8465,-538.3001 188.8465,-534.8 178.8464,-531.3001 178.8465,-538.3001"/>
</g>
<!-- g -->
<g id="node14" class="node">
<title>g</title>
<polygon fill="none" stroke="#000000" points="162.3809,-469.8014 -.1271,-469.8014 -.1271,-410.9986 162.3809,-410.9986 162.3809,-469.8014"/>
<text text-anchor="middle" x="81.1269" y="-453" font-family="Helvetica,sans-Serif" font-size="14.00" fill="#000000">Day 28 </text>
<text text-anchor="middle" x="81.1269" y="-436.2" font-family="Helvetica,sans-Serif" font-size="14.00" fill="#000000">182 participants eligible</text>
<text text-anchor="middle" x="81.1269" y="-419.4" font-family="Helvetica,sans-Serif" font-size="14.00" fill="#000000">148 samples</text>
</g>
<!-- f&#45;&gt;g -->
<g id="edge6" class="edge">
<title>f&#45;&gt;g</title>
<path fill="none" stroke="#000000" d="M81.1269,-534.7316C81.1269,-533.1662 81.1269,-505.0285 81.1269,-479.8898"/>
<polygon fill="#000000" stroke="#000000" points="84.627,-479.7472 81.1269,-469.7473 77.627,-479.7473 84.627,-479.7472"/>
</g>
<!-- h -->
<g id="node7" class="node">
<title>h</title>
<ellipse fill="#000000" stroke="#000000" cx="81.1269" cy="-337.6" rx=".036" ry=".036"/>
</g>
<!-- h1 -->
<g id="node8" class="node">
<title>h1</title>
<polygon fill="none" stroke="#000000" points="333.1269,-375.3003 189.1269,-375.3003 189.1269,-299.8997 333.1269,-299.8997 333.1269,-375.3003"/>
<text text-anchor="middle" x="261.1269" y="-358.6" font-family="Helvetica,sans-Serif" font-size="14.00" fill="#000000">Excluded n=19</text>
<text text-anchor="middle" x="261.1269" y="-341.8" font-family="Helvetica,sans-Serif" font-size="14.00" fill="#000000">12 died</text>
<text text-anchor="middle" x="261.1269" y="-325" font-family="Helvetica,sans-Serif" font-size="14.00" fill="#000000">5 withdrew</text>
<text text-anchor="middle" x="261.1269" y="-308.2" font-family="Helvetica,sans-Serif" font-size="14.00" fill="#000000">2 transfer out</text>
</g>
<!-- h&#45;&gt;h1 -->
<g id="edge9" class="edge">
<title>h&#45;&gt;h1</title>
<path fill="none" stroke="#000000" d="M81.4785,-337.5998C113.9125,-337.5804 146.3466,-337.5715 178.7807,-337.5732"/>
<polygon fill="#000000" stroke="#000000" points="178.8461,-341.0731 188.8465,-337.574 178.8468,-334.0731 178.8461,-341.0731"/>
</g>
<!-- h&#45;&gt;h1 -->
<g id="edge14" class="edge">
<title>h&#45;&gt;h1</title>
<path fill="none" stroke="#000000" d="M81.4785,-337.6002C113.9125,-337.6196 146.3466,-337.6285 178.7807,-337.6268"/>
<polygon fill="#000000" stroke="#000000" points="178.8468,-341.1269 188.8465,-337.626 178.8461,-334.1269 178.8468,-341.1269"/>
</g>
<!-- i -->
<g id="node15" class="node">
<title>i</title>
<polygon fill="none" stroke="#000000" points="162.3809,-264.2014 -.1271,-264.2014 -.1271,-205.3986 162.3809,-205.3986 162.3809,-264.2014"/>
<text text-anchor="middle" x="81.1269" y="-247.4" font-family="Helvetica,sans-Serif" font-size="14.00" fill="#000000">Day 90 </text>
<text text-anchor="middle" x="81.1269" y="-230.6" font-family="Helvetica,sans-Serif" font-size="14.00" fill="#000000">163 participants eligible</text>
<text text-anchor="middle" x="81.1269" y="-213.8" font-family="Helvetica,sans-Serif" font-size="14.00" fill="#000000">126 samples collected</text>
</g>
<!-- h&#45;&gt;i -->
<g id="edge8" class="edge">
<title>h&#45;&gt;i</title>
<path fill="none" stroke="#000000" d="M81.1269,-337.5255C81.1269,-335.744 81.1269,-302.3566 81.1269,-274.1227"/>
<polygon fill="#000000" stroke="#000000" points="84.627,-274.022 81.1269,-264.022 77.627,-274.022 84.627,-274.022"/>
</g>
<!-- j -->
<g id="node9" class="node">
<title>j</title>
<ellipse fill="#000000" stroke="#000000" cx="81.1269" cy="-132" rx=".036" ry=".036"/>
</g>
<!-- j1 -->
<g id="node10" class="node">
<title>j1</title>
<polygon fill="none" stroke="#000000" points="333.1269,-169.7003 189.1269,-169.7003 189.1269,-94.2997 333.1269,-94.2997 333.1269,-169.7003"/>
<text text-anchor="middle" x="261.1269" y="-153" font-family="Helvetica,sans-Serif" font-size="14.00" fill="#000000">Excluded n=15</text>
<text text-anchor="middle" x="261.1269" y="-136.2" font-family="Helvetica,sans-Serif" font-size="14.00" fill="#000000">8 died</text>
<text text-anchor="middle" x="261.1269" y="-119.4" font-family="Helvetica,sans-Serif" font-size="14.00" fill="#000000">6 transfer out</text>
<text text-anchor="middle" x="261.1269" y="-102.6" font-family="Helvetica,sans-Serif" font-size="14.00" fill="#000000">1 LTFU</text>
</g>
<!-- j&#45;&gt;j1 -->
<g id="edge16" class="edge">
<title>j&#45;&gt;j1</title>
<path fill="none" stroke="#000000" d="M81.4785,-132C113.9125,-132 146.3466,-132 178.7807,-132"/>
<polygon fill="#000000" stroke="#000000" points="178.8465,-135.5001 188.8465,-132 178.8464,-128.5001 178.8465,-135.5001"/>
</g>
<!-- k -->
<g id="node16" class="node">
<title>k</title>
<polygon fill="none" stroke="#000000" points="162.3809,-58.6014 -.1271,-58.6014 -.1271,.2014 162.3809,.2014 162.3809,-58.6014"/>
<text text-anchor="middle" x="81.1269" y="-41.8" font-family="Helvetica,sans-Serif" font-size="14.00" fill="#000000">Day 180</text>
<text text-anchor="middle" x="81.1269" y="-25" font-family="Helvetica,sans-Serif" font-size="14.00" fill="#000000">148 participants eligible</text>
<text text-anchor="middle" x="81.1269" y="-8.2" font-family="Helvetica,sans-Serif" font-size="14.00" fill="#000000">127 samples collected</text>
</g>
<!-- j&#45;&gt;k -->
<g id="edge11" class="edge">
<title>j&#45;&gt;k</title>
<path fill="none" stroke="#000000" d="M81.1269,-131.9255C81.1269,-130.144 81.1269,-96.7566 81.1269,-68.5227"/>
<polygon fill="#000000" stroke="#000000" points="84.627,-68.422 81.1269,-58.422 77.627,-68.422 84.627,-68.422"/>
</g>
<!-- a -->
<g id="node11" class="node">
<title>a</title>
<polygon fill="none" stroke="#000000" points="153.1269,-1086.2019 9.1269,-1086.2019 9.1269,-1044.9981 153.1269,-1044.9981 153.1269,-1086.2019"/>
<text text-anchor="middle" x="81.1269" y="-1069.8" font-family="Helvetica,sans-Serif" font-size="14.00" fill="#000000">Arm 1: Sepsis </text>
<text text-anchor="middle" x="81.1269" y="-1053" font-family="Helvetica,sans-Serif" font-size="14.00" fill="#000000">Screened n = 347</text>
</g>
<!-- a&#45;&gt;b -->
<g id="edge1" class="edge">
<title>a&#45;&gt;b</title>
<path fill="none" stroke="#000000" d="M81.1269,-1044.9447C81.1269,-1013.7915 81.1269,-958.0235 81.1269,-954.5685"/>
</g>
<!-- c&#45;&gt;d -->
<g id="edge3" class="edge">
<title>c&#45;&gt;d</title>
<path fill="none" stroke="#000000" d="M81.1269,-805.3416C81.1269,-775.9137 81.1269,-734.673 81.1269,-732.1242"/>
</g>
<!-- e&#45;&gt;f -->
<g id="edge5" class="edge">
<title>e&#45;&gt;f</title>
<path fill="none" stroke="#000000" d="M81.1269,-599.8487C81.1269,-573.0034 81.1269,-537.1242 81.1269,-534.908"/>
</g>
<!-- g&#45;&gt;h -->
<g id="edge7" class="edge">
<title>g&#45;&gt;h</title>
<path fill="none" stroke="#000000" d="M81.1269,-410.9416C81.1269,-381.5137 81.1269,-340.273 81.1269,-337.7242"/>
</g>
<!-- i&#45;&gt;j -->
<g id="edge10" class="edge">
<title>i&#45;&gt;j</title>
<path fill="none" stroke="#000000" d="M81.1269,-205.3416C81.1269,-175.9137 81.1269,-134.673 81.1269,-132.1242"/>
</g>
<!-- b_2 -->
<g id="node17" class="node">
<title>b_2</title>
<ellipse fill="#000000" stroke="#000000" cx="501.1269" cy="-954.4" rx=".036" ry=".036"/>
</g>
<!-- b1_2 -->
<g id="node18" class="node">
<title>b1_2</title>
<polygon fill="none" stroke="#000000" points="775.02,-1008.7002 609.2338,-1008.7002 609.2338,-900.0998 775.02,-900.0998 775.02,-1008.7002"/>
<text text-anchor="middle" x="692.1269" y="-992.2" font-family="Helvetica,sans-Serif" font-size="14.00" fill="#000000">Excluded n = 22 </text>
<text text-anchor="middle" x="692.1269" y="-975.4" font-family="Helvetica,sans-Serif" font-size="14.00" fill="#000000">Outside Blantyre 23</text>
<text text-anchor="middle" x="692.1269" y="-958.6" font-family="Helvetica,sans-Serif" font-size="14.00" fill="#000000">Declined 7</text>
<text text-anchor="middle" x="692.1269" y="-941.8" font-family="Helvetica,sans-Serif" font-size="14.00" fill="#000000">Age 3</text>
<text text-anchor="middle" x="692.1269" y="-925" font-family="Helvetica,sans-Serif" font-size="14.00" fill="#000000">Antimicrobials 1</text>
<text text-anchor="middle" x="692.1269" y="-908.2" font-family="Helvetica,sans-Serif" font-size="14.00" fill="#000000">Confused no guardian 1</text>
</g>
<!-- b_2&#45;&gt;b1_2 -->
<g id="edge29" class="edge">
<title>b_2&#45;&gt;b1_2</title>
<path fill="none" stroke="#000000" d="M501.4999,-954.4C534.0041,-954.4 566.5083,-954.4 599.0124,-954.4"/>
<polygon fill="#000000" stroke="#000000" points="599.1,-957.9001 609.0999,-954.4 599.0999,-950.9001 599.1,-957.9001"/>
</g>
<!-- c_2 -->
<g id="node28" class="node">
<title>c_2</title>
<polygon fill="none" stroke="#000000" points="574.3228,-864.2014 427.931,-864.2014 427.931,-805.3986 574.3228,-805.3986 574.3228,-864.2014"/>
<text text-anchor="middle" x="501.1269" y="-847.4" font-family="Helvetica,sans-Serif" font-size="14.00" fill="#000000">Enrolled </text>
<text text-anchor="middle" x="501.1269" y="-830.6" font-family="Helvetica,sans-Serif" font-size="14.00" fill="#000000">100 participants</text>
<text text-anchor="middle" x="501.1269" y="-813.8" font-family="Helvetica,sans-Serif" font-size="14.00" fill="#000000">99 samples collected</text>
</g>
<!-- b_2&#45;&gt;c_2 -->
<g id="edge18" class="edge">
<title>b_2&#45;&gt;c_2</title>
<path fill="none" stroke="#000000" d="M501.1269,-954.3133C501.1269,-952.1082 501.1269,-908.2797 501.1269,-874.3332"/>
<polygon fill="#000000" stroke="#000000" points="504.627,-874.1723 501.1269,-864.1723 497.627,-874.1723 504.627,-874.1723"/>
</g>
<!-- d_2 -->
<g id="node19" class="node">
<title>d_2</title>
<ellipse fill="#000000" stroke="#000000" cx="501.1269" cy="-732" rx=".036" ry=".036"/>
</g>
<!-- d1_2 -->
<g id="node20" class="node">
<title>d1_2</title>
<polygon fill="none" stroke="#000000" points="753.1269,-769.7003 609.1269,-769.7003 609.1269,-694.2997 753.1269,-694.2997 753.1269,-769.7003"/>
<text text-anchor="middle" x="681.1269" y="-753" font-family="Helvetica,sans-Serif" font-size="14.00" fill="#000000">Excluded n = 11</text>
<text text-anchor="middle" x="681.1269" y="-736.2" font-family="Helvetica,sans-Serif" font-size="14.00" fill="#000000">6 died</text>
<text text-anchor="middle" x="681.1269" y="-719.4" font-family="Helvetica,sans-Serif" font-size="14.00" fill="#000000">2 withdrew</text>
<text text-anchor="middle" x="681.1269" y="-702.6" font-family="Helvetica,sans-Serif" font-size="14.00" fill="#000000">3 LTFU</text>
</g>
<!-- d_2&#45;&gt;d1_2 -->
<g id="edge30" class="edge">
<title>d_2&#45;&gt;d1_2</title>
<path fill="none" stroke="#000000" d="M501.4785,-732C533.9125,-732 566.3466,-732 598.7807,-732"/>
<polygon fill="#000000" stroke="#000000" points="598.8465,-735.5001 608.8465,-732 598.8464,-728.5001 598.8465,-735.5001"/>
</g>
<!-- e_2 -->
<g id="node29" class="node">
<title>e_2</title>
<polygon fill="none" stroke="#000000" points="578.5988,-658.6014 423.655,-658.6014 423.655,-599.7986 578.5988,-599.7986 578.5988,-658.6014"/>
<text text-anchor="middle" x="501.1269" y="-641.8" font-family="Helvetica,sans-Serif" font-size="14.00" fill="#000000">Day 7 visit </text>
<text text-anchor="middle" x="501.1269" y="-625" font-family="Helvetica,sans-Serif" font-size="14.00" fill="#000000">89 participants eligible</text>
<text text-anchor="middle" x="501.1269" y="-608.2" font-family="Helvetica,sans-Serif" font-size="14.00" fill="#000000">63 samples collected</text>
</g>
<!-- d_2&#45;&gt;e_2 -->
<g id="edge20" class="edge">
<title>d_2&#45;&gt;e_2</title>
<path fill="none" stroke="#000000" d="M501.1269,-731.9255C501.1269,-730.144 501.1269,-696.7566 501.1269,-668.5227"/>
<polygon fill="#000000" stroke="#000000" points="504.627,-668.422 501.1269,-658.422 497.627,-668.422 504.627,-668.422"/>
</g>
<!-- f_2 -->
<g id="node21" class="node">
<title>f_2</title>
<ellipse fill="#000000" stroke="#000000" cx="501.1269" cy="-534.8" rx=".036" ry=".036"/>
</g>
<!-- f1_2 -->
<g id="node22" class="node">
<title>f1_2</title>
<polygon fill="none" stroke="#000000" points="753.1269,-564.2014 609.1269,-564.2014 609.1269,-505.3986 753.1269,-505.3986 753.1269,-564.2014"/>
<text text-anchor="middle" x="681.1269" y="-547.4" font-family="Helvetica,sans-Serif" font-size="14.00" fill="#000000">Excluded n = 6 </text>
<text text-anchor="middle" x="681.1269" y="-530.6" font-family="Helvetica,sans-Serif" font-size="14.00" fill="#000000">5 died</text>
<text text-anchor="middle" x="681.1269" y="-513.8" font-family="Helvetica,sans-Serif" font-size="14.00" fill="#000000">1 LTFU</text>
</g>
<!-- f_2&#45;&gt;f1_2 -->
<g id="edge32" class="edge">
<title>f_2&#45;&gt;f1_2</title>
<path fill="none" stroke="#000000" d="M501.4785,-534.8C533.9125,-534.8 566.3466,-534.8 598.7807,-534.8"/>
<polygon fill="#000000" stroke="#000000" points="598.8465,-538.3001 608.8465,-534.8 598.8464,-531.3001 598.8465,-538.3001"/>
</g>
<!-- g_2 -->
<g id="node30" class="node">
<title>g_2</title>
<polygon fill="none" stroke="#000000" points="578.5988,-469.8014 423.655,-469.8014 423.655,-410.9986 578.5988,-410.9986 578.5988,-469.8014"/>
<text text-anchor="middle" x="501.1269" y="-453" font-family="Helvetica,sans-Serif" font-size="14.00" fill="#000000">Day 28 visit </text>
<text text-anchor="middle" x="501.1269" y="-436.2" font-family="Helvetica,sans-Serif" font-size="14.00" fill="#000000">83 participants eligible</text>
<text text-anchor="middle" x="501.1269" y="-419.4" font-family="Helvetica,sans-Serif" font-size="14.00" fill="#000000">70 samples collected</text>
</g>
<!-- f_2&#45;&gt;g_2 -->
<g id="edge22" class="edge">
<title>f_2&#45;&gt;g_2</title>
<path fill="none" stroke="#000000" d="M501.1269,-534.7316C501.1269,-533.1662 501.1269,-505.0285 501.1269,-479.8898"/>
<polygon fill="#000000" stroke="#000000" points="504.627,-479.7472 501.1269,-469.7473 497.627,-479.7473 504.627,-479.7472"/>
</g>
<!-- h_2 -->
<g id="node23" class="node">
<title>h_2</title>
<ellipse fill="#000000" stroke="#000000" cx="501.1269" cy="-337.6" rx=".036" ry=".036"/>
</g>
<!-- h1_2 -->
<g id="node24" class="node">
<title>h1_2</title>
<polygon fill="none" stroke="#000000" points="753.1269,-367.0014 609.1269,-367.0014 609.1269,-308.1986 753.1269,-308.1986 753.1269,-367.0014"/>
<text text-anchor="middle" x="681.1269" y="-350.2" font-family="Helvetica,sans-Serif" font-size="14.00" fill="#000000">Excluded n = 7 </text>
<text text-anchor="middle" x="681.1269" y="-333.4" font-family="Helvetica,sans-Serif" font-size="14.00" fill="#000000">6 died</text>
<text text-anchor="middle" x="681.1269" y="-316.6" font-family="Helvetica,sans-Serif" font-size="14.00" fill="#000000">1 transfer out</text>
</g>
<!-- h_2&#45;&gt;h1_2 -->
<g id="edge25" class="edge">
<title>h_2&#45;&gt;h1_2</title>
<path fill="none" stroke="#000000" d="M501.4785,-337.5998C533.9125,-337.5804 566.3466,-337.5715 598.7807,-337.5732"/>
<polygon fill="#000000" stroke="#000000" points="598.8461,-341.0731 608.8465,-337.574 598.8468,-334.0731 598.8461,-341.0731"/>
</g>
<!-- h_2&#45;&gt;h1_2 -->
<g id="edge31" class="edge">
<title>h_2&#45;&gt;h1_2</title>
<path fill="none" stroke="#000000" d="M501.4785,-337.6002C533.9125,-337.6196 566.3466,-337.6285 598.7807,-337.6268"/>
<polygon fill="#000000" stroke="#000000" points="598.8468,-341.1269 608.8465,-337.626 598.8461,-334.1269 598.8468,-341.1269"/>
</g>
<!-- i_2 -->
<g id="node31" class="node">
<title>i_2</title>
<polygon fill="none" stroke="#000000" points="578.5988,-264.2014 423.655,-264.2014 423.655,-205.3986 578.5988,-205.3986 578.5988,-264.2014"/>
<text text-anchor="middle" x="501.1269" y="-247.4" font-family="Helvetica,sans-Serif" font-size="14.00" fill="#000000">Day 90 visit </text>
<text text-anchor="middle" x="501.1269" y="-230.6" font-family="Helvetica,sans-Serif" font-size="14.00" fill="#000000">76 participants eligible</text>
<text text-anchor="middle" x="501.1269" y="-213.8" font-family="Helvetica,sans-Serif" font-size="14.00" fill="#000000">59 samples collected</text>
</g>
<!-- h_2&#45;&gt;i_2 -->
<g id="edge24" class="edge">
<title>h_2&#45;&gt;i_2</title>
<path fill="none" stroke="#000000" d="M501.1269,-337.5255C501.1269,-335.744 501.1269,-302.3566 501.1269,-274.1227"/>
<polygon fill="#000000" stroke="#000000" points="504.627,-274.022 501.1269,-264.022 497.627,-274.022 504.627,-274.022"/>
</g>
<!-- j_2 -->
<g id="node25" class="node">
<title>j_2</title>
<ellipse fill="#000000" stroke="#000000" cx="501.1269" cy="-132" rx=".036" ry=".036"/>
</g>
<!-- j1_2 -->
<g id="node26" class="node">
<title>j1_2</title>
<polygon fill="none" stroke="#000000" points="753.1269,-169.7003 609.1269,-169.7003 609.1269,-94.2997 753.1269,-94.2997 753.1269,-169.7003"/>
<text text-anchor="middle" x="681.1269" y="-153" font-family="Helvetica,sans-Serif" font-size="14.00" fill="#000000">Excluded n = 10</text>
<text text-anchor="middle" x="681.1269" y="-136.2" font-family="Helvetica,sans-Serif" font-size="14.00" fill="#000000">6 died</text>
<text text-anchor="middle" x="681.1269" y="-119.4" font-family="Helvetica,sans-Serif" font-size="14.00" fill="#000000"> transfer out 3</text>
<text text-anchor="middle" x="681.1269" y="-102.6" font-family="Helvetica,sans-Serif" font-size="14.00" fill="#000000">1 withdrew</text>
</g>
<!-- j_2&#45;&gt;j1_2 -->
<g id="edge27" class="edge">
<title>j_2&#45;&gt;j1_2</title>
<path fill="none" stroke="#000000" d="M501.4785,-132C533.9125,-132 566.3466,-132 598.7807,-132"/>
<polygon fill="#000000" stroke="#000000" points="598.8465,-135.5001 608.8465,-132 598.8464,-128.5001 598.8465,-135.5001"/>
</g>
<!-- k_2 -->
<g id="node32" class="node">
<title>k_2</title>
<polygon fill="none" stroke="#000000" points="578.5988,-58.6014 423.655,-58.6014 423.655,.2014 578.5988,.2014 578.5988,-58.6014"/>
<text text-anchor="middle" x="501.1269" y="-41.8" font-family="Helvetica,sans-Serif" font-size="14.00" fill="#000000">Day 180 visit </text>
<text text-anchor="middle" x="501.1269" y="-25" font-family="Helvetica,sans-Serif" font-size="14.00" fill="#000000">66 participants eligible</text>
<text text-anchor="middle" x="501.1269" y="-8.2" font-family="Helvetica,sans-Serif" font-size="14.00" fill="#000000"> 65 samples collected</text>
</g>
<!-- j_2&#45;&gt;k_2 -->
<g id="edge28" class="edge">
<title>j_2&#45;&gt;k_2</title>
<path fill="none" stroke="#000000" d="M501.1269,-131.9255C501.1269,-130.144 501.1269,-96.7566 501.1269,-68.5227"/>
<polygon fill="#000000" stroke="#000000" points="504.627,-68.422 501.1269,-58.422 497.627,-68.422 504.627,-68.422"/>
</g>
<!-- a_2 -->
<g id="node27" class="node">
<title>a_2</title>
<polygon fill="none" stroke="#000000" points="573.1269,-1086.2019 429.1269,-1086.2019 429.1269,-1044.9981 573.1269,-1044.9981 573.1269,-1086.2019"/>
<text text-anchor="middle" x="501.1269" y="-1069.8" font-family="Helvetica,sans-Serif" font-size="14.00" fill="#000000">Arm 2: Inpatients </text>
<text text-anchor="middle" x="501.1269" y="-1053" font-family="Helvetica,sans-Serif" font-size="14.00" fill="#000000">Screened n = 122</text>
</g>
<!-- a_2&#45;&gt;b_2 -->
<g id="edge17" class="edge">
<title>a_2&#45;&gt;b_2</title>
<path fill="none" stroke="#000000" d="M501.1269,-1044.9447C501.1269,-1013.7915 501.1269,-958.0235 501.1269,-954.5685"/>
</g>
<!-- c_2&#45;&gt;d_2 -->
<g id="edge19" class="edge">
<title>c_2&#45;&gt;d_2</title>
<path fill="none" stroke="#000000" d="M501.1269,-805.3416C501.1269,-775.9137 501.1269,-734.673 501.1269,-732.1242"/>
</g>
<!-- e_2&#45;&gt;f_2 -->
<g id="edge21" class="edge">
<title>e_2&#45;&gt;f_2</title>
<path fill="none" stroke="#000000" d="M501.1269,-599.8487C501.1269,-573.0034 501.1269,-537.1242 501.1269,-534.908"/>
</g>
<!-- g_2&#45;&gt;h_2 -->
<g id="edge23" class="edge">
<title>g_2&#45;&gt;h_2</title>
<path fill="none" stroke="#000000" d="M501.1269,-410.9416C501.1269,-381.5137 501.1269,-340.273 501.1269,-337.7242"/>
</g>
<!-- i_2&#45;&gt;j_2 -->
<g id="edge26" class="edge">
<title>i_2&#45;&gt;j_2</title>
<path fill="none" stroke="#000000" d="M501.1269,-205.3416C501.1269,-175.9137 501.1269,-134.673 501.1269,-132.1242"/>
</g>
<!-- b_3 -->
<g id="node33" class="node">
<title>b_3</title>
<ellipse fill="#000000" stroke="#000000" cx="883.1269" cy="-954.4" rx=".036" ry=".036"/>
</g>
<!-- b1_3 -->
<g id="node34" class="node">
<title>b1_3</title>
<polygon fill="none" stroke="#000000" points="1135.1269,-975.0019 991.1269,-975.0019 991.1269,-933.7981 1135.1269,-933.7981 1135.1269,-975.0019"/>
<text text-anchor="middle" x="1063.1269" y="-958.6" font-family="Helvetica,sans-Serif" font-size="14.00" fill="#000000">Excluded n = 2</text>
<text text-anchor="middle" x="1063.1269" y="-941.8" font-family="Helvetica,sans-Serif" font-size="14.00" fill="#000000">Antimicrobials 2</text>
</g>
<!-- b_3&#45;&gt;b1_3 -->
<g id="edge44" class="edge">
<title>b_3&#45;&gt;b1_3</title>
<path fill="none" stroke="#000000" d="M883.4785,-954.4C915.9125,-954.4 948.3466,-954.4 980.7807,-954.4"/>
<polygon fill="#000000" stroke="#000000" points="980.8465,-957.9001 990.8465,-954.4 980.8464,-950.9001 980.8465,-957.9001"/>
</g>
<!-- c_3 -->
<g id="node44" class="node">
<title>c_3</title>
<polygon fill="none" stroke="#000000" points="956.3228,-864.2014 809.931,-864.2014 809.931,-805.3986 956.3228,-805.3986 956.3228,-864.2014"/>
<text text-anchor="middle" x="883.1269" y="-847.4" font-family="Helvetica,sans-Serif" font-size="14.00" fill="#000000">Enrolled </text>
<text text-anchor="middle" x="883.1269" y="-830.6" font-family="Helvetica,sans-Serif" font-size="14.00" fill="#000000">100 participants</text>
<text text-anchor="middle" x="883.1269" y="-813.8" font-family="Helvetica,sans-Serif" font-size="14.00" fill="#000000">99 samples collected</text>
</g>
<!-- b_3&#45;&gt;c_3 -->
<g id="edge34" class="edge">
<title>b_3&#45;&gt;c_3</title>
<path fill="none" stroke="#000000" d="M883.1269,-954.3133C883.1269,-952.1082 883.1269,-908.2797 883.1269,-874.3332"/>
<polygon fill="#000000" stroke="#000000" points="886.627,-874.1723 883.1269,-864.1723 879.627,-874.1723 886.627,-874.1723"/>
</g>
<!-- d_3 -->
<g id="node35" class="node">
<title>d_3</title>
<ellipse fill="#000000" stroke="#000000" cx="883.1269" cy="-732" rx=".036" ry=".036"/>
</g>
<!-- d1_3 -->
<!-- d_3&#45;&gt;d1_3 -->
<!-- e_3 -->
<!-- d_3&#45;&gt;e_3 -->
<g id="edge36" class="edge">
<title>d_3&#45;&gt;e_3</title>
<path fill="none" stroke="#000000" d="M883.1269,-731.9255C883.1269,-728.8612 883.1269,-632.2893 883.1269,-629.2722"/>
</g>
<!-- f_3 -->
<!-- f1_3 -->
<g id="node38" class="node">
<title>f1_3</title>
<polygon fill="none" stroke="#000000" points="1135.1269,-555.4019 991.1269,-555.4019 991.1269,-514.1981 1135.1269,-514.1981 1135.1269,-555.4019"/>
<text text-anchor="middle" x="1063.1269" y="-539" font-family="Helvetica,sans-Serif" font-size="14.00" fill="#000000">Excluded n = 1</text>
<text text-anchor="middle" x="1063.1269" y="-522.2" font-family="Helvetica,sans-Serif" font-size="14.00" fill="#000000">1 transfer out</text>
</g>
<!-- f_3&#45;&gt;f1_3 -->
<g id="edge47" class="edge">
<title>f_3&#45;&gt;f1_3</title>
<path fill="none" stroke="#000000" d="M883.4785,-534.8C915.9125,-534.8 948.3466,-534.8 980.7807,-534.8"/>
<polygon fill="#000000" stroke="#000000" points="980.8465,-538.3001 990.8465,-534.8 980.8464,-531.3001 980.8465,-538.3001"/>
</g>
<!-- g_3 -->
<g id="node46" class="node">
<title>g_3</title>
<polygon fill="none" stroke="#000000" points="956.3228,-469.8014 809.931,-469.8014 809.931,-410.9986 956.3228,-410.9986 956.3228,-469.8014"/>
<text text-anchor="middle" x="883.1269" y="-453" font-family="Helvetica,sans-Serif" font-size="14.00" fill="#000000">Day 28 visit </text>
<text text-anchor="middle" x="883.1269" y="-436.2" font-family="Helvetica,sans-Serif" font-size="14.00" fill="#000000">99 participants</text>
<text text-anchor="middle" x="883.1269" y="-419.4" font-family="Helvetica,sans-Serif" font-size="14.00" fill="#000000">93 samples collected</text>
</g>
<!-- f_3&#45;&gt;g_3 -->
<g id="edge38" class="edge">
<title>f_3&#45;&gt;g_3</title>
<path fill="none" stroke="#000000" d="M883.1269,-534.7316C883.1269,-533.1662 883.1269,-505.0285 883.1269,-479.8898"/>
<polygon fill="#000000" stroke="#000000" points="886.627,-479.7472 883.1269,-469.7473 879.627,-479.7473 886.627,-479.7472"/>
</g>
<!-- h_3 -->
<g id="node39" class="node">
<title>h_3</title>
<ellipse fill="#000000" stroke="#000000" cx="883.1269" cy="-337.6" rx=".036" ry=".036"/>
</g>
<!-- h1_3 -->
<!-- h_3&#45;&gt;h1_3 -->
<!-- h_3&#45;&gt;h1_3 -->
<!-- i_3 -->
<g id="node47" class="node">
<title>i_3</title>
<ellipse fill="#000000" stroke="#000000" cx="883.1269" cy="-234.8" rx=".036" ry=".036"/>
</g>
<!-- h_3&#45;&gt;i_3 -->
<g id="edge40" class="edge">
<title>h_3&#45;&gt;i_3</title>
<path fill="none" stroke="#000000" d="M883.1269,-337.5255C883.1269,-334.4612 883.1269,-237.8893 883.1269,-234.8722"/>
</g>
<!-- j_3 -->
<!-- j1_3 -->
<g id="node42" class="node">
<title>j1_3</title>
<polygon fill="none" stroke="#000000" points="1135.1269,-161.4014 991.1269,-161.4014 991.1269,-102.5986 1135.1269,-102.5986 1135.1269,-161.4014"/>
<text text-anchor="middle" x="1063.1269" y="-144.6" font-family="Helvetica,sans-Serif" font-size="14.00" fill="#000000">Excluded n= 3</text>
<text text-anchor="middle" x="1063.1269" y="-127.8" font-family="Helvetica,sans-Serif" font-size="14.00" fill="#000000">2 withdrew</text>
<text text-anchor="middle" x="1063.1269" y="-111" font-family="Helvetica,sans-Serif" font-size="14.00" fill="#000000">1 transfer out</text>
</g>
<!-- j_3&#45;&gt;j1_3 -->
<g id="edge48" class="edge">
<title>j_3&#45;&gt;j1_3</title>
<path fill="none" stroke="#000000" d="M883.4785,-132C915.9125,-132 948.3466,-132 980.7807,-132"/>
<polygon fill="#000000" stroke="#000000" points="980.8465,-135.5001 990.8465,-132 980.8464,-128.5001 980.8465,-135.5001"/>
</g>
<!-- k_3 -->
<g id="node48" class="node">
<title>k_3</title>
<polygon fill="none" stroke="#000000" points="960.5988,-58.6014 805.655,-58.6014 805.655,.2014 960.5988,.2014 960.5988,-58.6014"/>
<text text-anchor="middle" x="883.1269" y="-41.8" font-family="Helvetica,sans-Serif" font-size="14.00" fill="#000000">Day 180 visit </text>
<text text-anchor="middle" x="883.1269" y="-25" font-family="Helvetica,sans-Serif" font-size="14.00" fill="#000000">97 participants eligible</text>
<text text-anchor="middle" x="883.1269" y="-8.2" font-family="Helvetica,sans-Serif" font-size="14.00" fill="#000000"> 83 samples collected</text>
</g>
<!-- j_3&#45;&gt;k_3 -->
<g id="edge43" class="edge">
<title>j_3&#45;&gt;k_3</title>
<path fill="none" stroke="#000000" d="M883.1269,-131.9255C883.1269,-130.144 883.1269,-96.7566 883.1269,-68.5227"/>
<polygon fill="#000000" stroke="#000000" points="886.627,-68.422 883.1269,-58.422 879.627,-68.422 886.627,-68.422"/>
</g>
<!-- a_3 -->
<g id="node43" class="node">
<title>a_3</title>
<polygon fill="none" stroke="#000000" points="955.1269,-1086.2019 811.1269,-1086.2019 811.1269,-1044.9981 955.1269,-1044.9981 955.1269,-1086.2019"/>
<text text-anchor="middle" x="883.1269" y="-1069.8" font-family="Helvetica,sans-Serif" font-size="14.00" fill="#000000">Arm 3:Community </text>
<text text-anchor="middle" x="883.1269" y="-1053" font-family="Helvetica,sans-Serif" font-size="14.00" fill="#000000">Screened n = 102</text>
</g>
<!-- a_3&#45;&gt;b_3 -->
<g id="edge33" class="edge">
<title>a_3&#45;&gt;b_3</title>
<path fill="none" stroke="#000000" d="M883.1269,-1044.9447C883.1269,-1013.7915 883.1269,-958.0235 883.1269,-954.5685"/>
</g>
<!-- c_3&#45;&gt;d_3 -->
<g id="edge35" class="edge">
<title>c_3&#45;&gt;d_3</title>
<path fill="none" stroke="#000000" d="M883.1269,-805.3416C883.1269,-775.9137 883.1269,-734.673 883.1269,-732.1242"/>
</g>
<!-- e_3&#45;&gt;f_3 -->
<g id="edge37" class="edge">
<title>e_3&#45;&gt;f_3</title>
<path fill="none" stroke="#000000" d="M883.1269,-629.1316C883.1269,-626.3177 883.1269,-537.6369 883.1269,-534.8663"/>
</g>
<!-- g_3&#45;&gt;h_3 -->
<g id="edge39" class="edge">
<title>g_3&#45;&gt;h_3</title>
<path fill="none" stroke="#000000" d="M883.1269,-410.9416C883.1269,-381.5137 883.1269,-340.273 883.1269,-337.7242"/>
</g>
<!-- i_3&#45;&gt;j_3 -->
<g id="edge42" class="edge">
<title>i_3&#45;&gt;j_3</title>
<path fill="none" stroke="#000000" d="M883.1269,-234.7255C883.1269,-231.6612 883.1269,-135.0893 883.1269,-132.0722"/>
</g>
</g>
</svg>

